<?xml version="1.0" encoding="UTF-8" standalone="no"?>
<!-- Created with Inkscape (http://www.inkscape.org/) -->

<svg
   width="128mm"
   height="128mm"
   viewBox="0 0 128 128"
   version="1.1"
   id="svg1"
   xmlns="http://www.w3.org/2000/svg"
   xmlns:svg="http://www.w3.org/2000/svg">
  <defs
     id="defs1" />
  <g
     id="layer1">
    <path
       id="path6"
       style="baseline-shift:baseline;display:inline;overflow:visible;opacity:1;vector-effect:none;stroke-linecap:round;enable-background:accumulate;stop-color:#000000;stop-opacity:1"
       d="M 64.000228,0.38912354 A 10.5,10.5 0 0 0 55.203349,10.750248 v 3.513481 c -6.381389,1.121569 -12.350534,3.441908 -17.666622,6.720003 l -2.06189,-2.06189 a 10.5,10.5 0 0 0 -7.425903,-3.076298 10.5,10.5 0 0 0 -7.423836,3.076298 10.5,10.5 0 0 0 0,14.84974 l 1.701705,1.701705 C 18.65259,40.829541 15.984249,46.929236 14.593941,53.500094 H 10.750248 A 10.5,10.5 0 0 0 0.25011393,64.000228 10.5,10.5 0 0 0 10.750248,74.499845 h 3.843176 c 1.302694,6.157055 3.727651,11.90053 7.050733,17.006197 l -2.722315,2.722315 a 10.5,10.5 0 0 0 0,14.849743 10.5,10.5 0 0 0 14.84974,0 l 2.722314,-2.72232 c 5.573624,3.62761 11.907413,6.18495 18.709453,7.38043 v 3.514 a 10.5,10.5 0 0 0 10.499617,10.49962 10.5,10.5 0 0 0 10.500135,-10.49962 v -4.2354 c 5.514316,-1.369 10.671064,-3.64436 15.302941,-6.65903 l 2.722315,2.72232 a 10.5,10.5 0 0 0 14.849743,0 L 64.000228,64.000228 Z M 55.559916,66.707039 a 10.5,10.5 0 0 0 0.0925,0.275953 10.5,10.5 0 0 1 -0.0925,-0.275953 z m 2.719214,4.717025 a 10.5,10.5 0 0 0 0.996838,0.872815 10.5,10.5 0 0 1 -0.0062,-0.0047 10.5,10.5 0 0 1 -0.476973,-0.417029 10.5,10.5 0 0 1 -0.03307,-0.02945 10.5,10.5 0 0 1 -0.480591,-0.42168 z m 13.885974,0.84491 a 10.5,10.5 0 0 1 -0.03307,0.02739 10.5,10.5 0 0 1 -0.520898,0.355534 10.5,10.5 0 0 1 -0.01705,0.01189 10.5,10.5 0 0 1 -0.03566,0.02377 10.5,10.5 0 0 0 0.606681,-0.418579 z m -12.10262,0.561206 a 10.5,10.5 0 0 0 0.30334,0.201538 10.5,10.5 0 0 1 -0.0098,-0.0052 10.5,10.5 0 0 1 -0.210323,-0.14056 10.5,10.5 0 0 1 -0.0832,-0.05581 z m 10.952303,0.220141 a 10.5,10.5 0 0 1 -0.03101,0.02067 10.5,10.5 0 0 1 -0.555522,0.27957 10.5,10.5 0 0 1 -0.0041,0.0021 10.5,10.5 0 0 1 -0.05633,0.02791 10.5,10.5 0 0 0 0.646989,-0.330213 z m -9.712586,0.458887 a 10.5,10.5 0 0 0 0.239262,0.116789 10.5,10.5 0 0 1 -0.01912,-0.0067 10.5,10.5 0 0 1 -0.14056,-0.06925 10.5,10.5 0 0 1 -0.07958,-0.04082 z m 8.479586,0.160197 a 10.5,10.5 0 0 1 -0.03824,0.0186 10.5,10.5 0 0 1 -0.587561,0.203088 10.5,10.5 0 0 1 -0.06305,0.02119 10.5,10.5 0 0 0 0.688847,-0.242879 z m -7.206795,0.330213 a 10.5,10.5 0 0 0 0.202055,0.0677 10.5,10.5 0 0 1 -0.02377,-0.0052 10.5,10.5 0 0 1 -0.106971,-0.03669 10.5,10.5 0 0 1 -0.07131,-0.02584 z m 5.907133,0.120922 a 10.5,10.5 0 0 1 -0.04599,0.0155 10.5,10.5 0 0 1 -0.0021,5.17e-4 10.5,10.5 0 0 1 -0.556555,0.112655 10.5,10.5 0 0 1 -0.0646,0.01292 10.5,10.5 0 0 1 -0.08113,0.01602 10.5,10.5 0 0 0 0.750342,-0.157613 z m -4.575948,0.201538 a 10.5,10.5 0 0 0 0.14211,0.02739 10.5,10.5 0 0 1 -0.02791,-0.0026 10.5,10.5 0 0 1 -0.04703,-0.0093 10.5,10.5 0 0 1 -0.06718,-0.0155 z m 3.218408,0.07648 a 10.5,10.5 0 0 1 -0.04703,0.0093 10.5,10.5 0 0 1 -0.422196,0.02842 10.5,10.5 0 0 1 -0.03772,0.0026 10.5,10.5 0 0 1 -0.04858,0.0015 10.5,10.5 0 0 0 0.555522,-0.04186 z m -1.897042,0.06718 a 10.5,10.5 0 0 0 0.12454,0.0072 10.5,10.5 0 0 1 -0.03876,0.001 10.5,10.5 0 0 1 -0.0072,-5.17e-4 10.5,10.5 0 0 1 -0.07855,-0.0078 z" />
    <path
       style="fill:#000000;fill-opacity:0;stroke:#000000;stroke-width:4.99999;stroke-linecap:round;stroke-linejoin:round;stroke-dasharray:none;stroke-dashoffset:0;stroke-opacity:1"
       id="path16"
       d="m 64.312299,16.071402 c 2.369886,0.01544 4.710218,0.20524 7.006142,0.559371 m 13.39226,4.144264 c 4.235597,2.030532 8.152787,4.673725 11.621019,7.841486 m 8.85546,10.867771 c 1.1877,1.996507 2.23963,4.0957 3.14094,6.287556 0.90132,2.191856 1.63039,4.423812 2.19074,6.678294 m 1.35131,13.953548 c -0.23655,4.691203 -1.16121,9.325409 -2.74315,13.748169 m -6.60289,12.366462 c -1.38266,1.866798 -2.912479,3.64804 -4.585958,5.326152" />
  </g>
</svg>
